<?xml version="1.0" encoding="utf-8"?>
<!-- Generator: Adobe Illustrator 16.0.0, SVG Export Plug-In . SVG Version: 6.00 Build 0)  -->
<!DOCTYPE svg PUBLIC "-//W3C//DTD SVG 1.1//EN" "http://www.w3.org/Graphics/SVG/1.1/DTD/svg11.dtd">
<svg version="1.1" id="OneDrive" xmlns="http://www.w3.org/2000/svg" xmlns:xlink="http://www.w3.org/1999/xlink" x="0px" y="0px"
	 width="429.5px" height="263px" viewBox="0 0 429.5 263" enable-background="new 0 0 429.5 263" xml:space="preserve">
<path fill="#25B7D3" d="M424.75,211.793c0,24.736-20.052,44.783-44.783,44.783H153.371c-30.063,0-54.43-24.367-54.43-54.432
	c0-30.063,24.367-54.431,54.43-54.431c2.126,0,4.208,0.146,6.266,0.379c0.927-40.43,33.944-72.953,74.61-72.953
	c25.795,0,48.535,13.07,61.957,32.963c8.157-4.01,17.311-6.326,27.018-6.326c33.898,0,61.379,27.474,61.379,61.377
	c0,1.375-0.111,2.722-0.202,4.078C407.045,169.463,424.75,188.559,424.75,211.793z M145.836,132.678
	c8.112-41.395,45.012-72.978,88.411-72.978c25.778,0,50.039,10.976,67.021,29.857c7.104-2.142,14.454-3.221,21.951-3.221
	c0.045,0,0.083,0,0.121,0c-5.043-44.958-43.148-79.912-89.441-79.912c-35.084,0-65.416,20.105-80.277,49.387
	c-9.434-5.362-20.303-8.47-31.932-8.47c-35.737,0-64.713,28.978-64.713,64.722c0,5.432,0.744,10.672,2.005,15.707
	C28.812,129.161,4.75,153.982,4.75,184.502c0,31.398,25.46,56.859,56.86,56.859h33.975c-7.618-11.188-12.084-24.693-12.084-39.217
	C83.5,166.158,110.844,136.443,145.836,132.678z"/>
</svg>
