<?xml version="1.0" encoding="utf-8"?>
<!-- Generator: Adobe Illustrator 16.0.0, SVG Export Plug-In . SVG Version: 6.00 Build 0)  -->
<!DOCTYPE svg PUBLIC "-//W3C//DTD SVG 1.1//EN" "http://www.w3.org/Graphics/SVG/1.1/DTD/svg11.dtd">
<svg version="1.1" id="Layer_1" xmlns="http://www.w3.org/2000/svg" xmlns:xlink="http://www.w3.org/1999/xlink" x="0px" y="0px"
	 width="459.001px" height="458.977px" viewBox="76.5 141.326 459.001 458.977"
	 enable-background="new 76.5 141.326 459.001 458.977" xml:space="preserve">
<g>
	<path fill="#F27744" d="M340.585,413.583l-0.206-21.444c0,0,8.374-6.436,10.973-26.621c5.227,1.516,10.749-7.834,11.037-12.737
		c0.286-4.733-0.718-17.876-7.101-16.567c1.282-9.889,2.241-18.782,1.774-23.486c-1.649-17.24-18.629-35.412-44.716-35.412
		s-43.067,18.172-44.698,35.412c-0.467,4.705,0.467,13.598,1.775,23.486c-6.394-1.309-7.406,11.834-7.111,16.567
		c0.297,4.903,5.783,14.255,11.037,12.737c2.582,20.187,10.973,26.621,10.973,26.621l-0.215,21.444c0,0-5.307,3.229-27.666,12.552
		c-22.35,9.323-44.95,15.833-51.655,26.32c-0.089,0.163-0.171,0.378-0.259,0.537c20.286,25.552,49.959,43.211,83.838,47.872
		l20.88-37.043l20.403,36.202c34.552-6.311,64.314-26.196,83.517-54.023c-10.095-7.046-27.54-12.604-44.932-19.865
		C345.893,416.812,340.585,413.583,340.585,413.583z M309.264,463.824l-14.416-14.397l14.397-14.398l14.397,14.398L309.264,463.824z
		"/>
	<path fill="#F27744" d="M529.26,339.619l-48.303-5.719c-4.625-21.974-13.285-42.45-25.199-60.648l30.139-38.226
		c2.151-2.689,1.91-6.939-0.546-9.367l-34.166-34.201c-2.474-2.457-6.687-2.708-9.421-0.546l-38.217,30.13
		c-18.181-11.877-38.64-20.565-60.658-25.155l-5.674-48.321c-0.423-3.425-3.568-6.24-7.057-6.24h-48.347
		c-3.47,0-6.606,2.815-7.047,6.24l-5.701,48.321c-21.981,4.59-42.448,13.278-60.62,25.155l-38.244-30.13
		c-2.726-2.162-6.92-1.911-9.377,0.546l-34.174,34.201c-2.474,2.428-2.77,6.678-0.582,9.386l30.112,38.208
		c-11.853,18.199-20.528,38.675-25.138,60.647l-48.284,5.721c-3.46,0.385-6.257,3.576-6.257,7.018v48.354
		c0,3.479,2.797,6.614,6.257,7.045l48.284,5.666c4.609,22.018,13.285,42.494,25.138,60.693l-30.112,38.226
		c-2.188,2.706-1.893,6.921,0.582,9.358l34.174,34.21c2.43,2.455,6.652,2.689,9.404,0.555l38.219-30.158
		c18.172,11.889,38.637,20.566,60.619,25.192l5.701,48.283c0.439,3.441,3.576,6.24,7.047,6.24h48.347
		c3.488,0,6.634-2.797,7.057-6.24l5.674-48.283c22.018-4.626,42.477-13.304,60.658-25.192l38.217,30.158
		c2.734,2.135,6.947,1.884,9.421-0.555l34.166-34.21c2.456-2.438,2.697-6.653,0.546-9.358l-30.139-38.226
		c11.913-18.199,20.574-38.676,25.2-60.693l48.303-5.683c3.406-0.414,6.239-3.55,6.239-7.028v-48.354
		C535.5,343.196,532.666,340.006,529.26,339.619z M305.965,516.878c-80.631,0-146.02-65.408-146.02-146.069
		c0-80.639,65.39-146.037,146.02-146.037c80.684,0,146.073,65.4,146.073,146.037C452.037,451.47,386.648,516.878,305.965,516.878z"
		/>
</g>
</svg>
