<?xml version="1.0" encoding="utf-8"?>
<!-- Generator: Adobe Illustrator 16.0.0, SVG Export Plug-In . SVG Version: 6.00 Build 0)  -->
<!DOCTYPE svg PUBLIC "-//W3C//DTD SVG 1.1//EN" "http://www.w3.org/Graphics/SVG/1.1/DTD/svg11.dtd">
<svg version="1.1" id="Layer_1" xmlns="http://www.w3.org/2000/svg" xmlns:xlink="http://www.w3.org/1999/xlink" x="0px" y="0px"
	 width="612px" height="612.01px" viewBox="0 89.995 612 612.01" enable-background="new 0 89.995 612 612.01" xml:space="preserve"
	>
<g>
	<polygon fill="#F27744" points="294.848,474.612 309.264,489.01 323.643,474.612 309.245,460.214 	"/>
	<path fill="#F27744" d="M305.965,249.957c-80.63,0-146.02,65.398-146.02,146.037c0,80.661,65.389,146.069,146.02,146.069
		c80.684,0,146.072-65.408,146.073-146.069C452.038,315.357,386.648,249.957,305.965,249.957z M329.648,525.209l-20.403-36.202
		l-20.88,37.043c-33.879-4.661-63.552-22.32-83.838-47.872c0.088-0.159,0.17-0.374,0.259-0.537
		c6.705-10.487,29.306-16.997,51.655-26.32c22.359-9.323,27.666-12.552,27.666-12.552l0.215-21.444c0,0-8.391-6.435-10.973-26.621
		c-5.254,1.518-10.74-7.834-11.037-12.737c-0.295-4.733,0.718-17.876,7.111-16.567c-1.309-9.889-2.242-18.781-1.775-23.486
		c1.631-17.24,18.611-35.412,44.698-35.412s43.066,18.172,44.716,35.412c0.467,4.704-0.492,13.598-1.774,23.486
		c6.383-1.309,7.387,11.834,7.101,16.567c-0.288,4.903-5.811,14.253-11.037,12.737c-2.599,20.186-10.973,26.621-10.973,26.621
		l0.206,21.444c0,0,5.308,3.229,27.648,12.552c17.392,7.262,34.837,12.819,44.932,19.865
		C393.963,499.013,364.2,518.898,329.648,525.209z"/>
	<path fill="#F27744" d="M0,89.995v612.01h612V89.995H0z M535.501,420.178c0,3.479-2.833,6.614-6.239,7.028l-48.303,5.683
		c-4.626,22.018-13.287,42.494-25.2,60.693l30.139,38.226c2.151,2.705,1.91,6.921-0.546,9.358l-34.166,34.21
		c-2.474,2.438-6.687,2.689-9.421,0.555l-38.217-30.158c-18.182,11.889-38.641,20.566-60.658,25.192l-5.674,48.283
		c-0.423,3.443-3.568,6.24-7.057,6.24h-48.347c-3.471,0-6.607-2.799-7.047-6.24l-5.701-48.283
		c-21.982-4.626-42.447-13.304-60.619-25.192l-38.219,30.158c-2.752,2.135-6.975,1.9-9.404-0.555l-34.174-34.21
		c-2.475-2.438-2.77-6.652-0.582-9.358l30.112-38.226c-11.853-18.199-20.528-38.676-25.138-60.693l-48.284-5.666
		c-3.46-0.431-6.257-3.566-6.257-7.045v-48.354c0-3.441,2.797-6.633,6.257-7.018l48.284-5.721
		c4.609-21.973,13.285-42.449,25.138-60.647l-30.112-38.208c-2.188-2.707-1.892-6.957,0.582-9.386l34.174-34.201
		c2.457-2.456,6.651-2.708,9.377-0.546l38.244,30.13c18.172-11.878,38.639-20.565,60.62-25.155l5.701-48.321
		c0.44-3.425,3.577-6.239,7.047-6.239h48.347c3.488,0,6.634,2.814,7.057,6.239l5.674,48.321
		c22.019,4.59,42.478,13.277,60.658,25.155l38.217-30.13c2.734-2.162,6.947-1.91,9.421,0.546l34.166,34.201
		c2.456,2.429,2.697,6.679,0.546,9.367l-30.139,38.226c11.914,18.198,20.574,38.675,25.199,60.648l48.303,5.719
		c3.406,0.387,6.24,3.577,6.241,7.02V420.178z"/>
</g>
<g id="Layer_1_1_">
</g>
</svg>
