<?xml version="1.0" encoding="utf-8"?>
<!-- Generator: Adobe Illustrator 16.0.0, SVG Export Plug-In . SVG Version: 6.00 Build 0)  -->
<!DOCTYPE svg PUBLIC "-//W3C//DTD SVG 1.1//EN" "http://www.w3.org/Graphics/SVG/1.1/DTD/svg11.dtd">
<svg version="1.1" id="Layer_1" xmlns="http://www.w3.org/2000/svg" xmlns:xlink="http://www.w3.org/1999/xlink" x="0px" y="0px"
	 width="612px" height="628px" viewBox="0 80.5 612 628" enable-background="new 0 80.5 612 628" xml:space="preserve">
<g id="video-camera">
	<g>
		<path fill="#DFC97A" d="M305.997,90.003C137.009,90.003,0,226.994,0,396c0,168.994,137.009,305.997,305.997,305.997
			C475.003,701.997,612,564.994,612,396C612,226.994,475.003,90.003,305.997,90.003z"/>
		<g id="_x33_6">
			<path fill="#656D78" d="M167.249,308.077c-6.467,0-11.75,5.261-11.75,11.738v135.108h-28.25c-5.351,0-9.726-4.358-9.726-9.701
				V317.755c0-5.349,4.375-9.678,9.726-9.678H167.249z"/>
			<rect x="380.792" y="333.762" fill="#656D78" width="37.793" height="88.605"/>
			<polygon fill="#656D78" points="422.463,329.975 422.463,333.763 422.463,422.369 422.463,426.139 473.091,447.455 
				475.626,448.548 475.626,307.536 473.091,308.646 			"/>
			<polygon fill="#656D78" points="479.718,306.326 479.718,308.646 479.718,447.455 479.718,449.806 494.484,449.806 
				494.484,306.326 			"/>
			<g>
				<path fill="#656D78" d="M376.298,319.815v13.947v88.606v51.538c0,6.502-5.261,11.768-11.757,11.768H173.334
					c-6.508,0-11.738-5.268-11.738-11.768v-18.983V319.815c0-6.478,5.231-11.738,11.738-11.738h118.091h73.115
					C371.037,308.077,376.298,313.338,376.298,319.815z"/>
				<path fill="#848A93" d="M317.783,384.143c0-3.534-2.857-6.419-6.402-6.419h-10.253H181.451c-3.521,0-6.4,2.885-6.4,6.419v70.782
					v13.2c0,3.532,2.88,6.394,6.4,6.394h129.931c3.544,0,6.401-2.861,6.401-6.394V384.143L317.783,384.143z"/>
				<polygon fill="#848A93" points="350.451,361.134 313.247,323.941 301.128,323.941 175.05,323.941 175.05,361.134 
					301.128,361.134 				"/>
			</g>
			<path fill="#FFFFFF" d="M291.687,392.414h-90.541c-2.452,0-4.436,1.265-4.436,2.862v37.774c0,1.58,1.982,2.915,4.436,2.915
				h90.541c2.441,0,4.488-1.335,4.488-2.915v-37.774C296.177,393.678,294.128,392.414,291.687,392.414z"/>
			<g>
				<path fill="#DFC97A" d="M339.045,464.151c-4.815,0-8.716-3.919-8.716-8.74c0-4.839,3.9-8.717,8.716-8.717
					c4.828,0,8.741,3.878,8.741,8.717C347.784,460.232,343.873,464.151,339.045,464.151z"/>
				<path fill="#F2955C" d="M339.045,431.114c-4.815,0-8.716-3.924-8.716-8.734c0-4.834,3.9-8.698,8.716-8.698
					c4.828,0,8.741,3.866,8.741,8.698C347.784,427.19,343.873,431.114,339.045,431.114z"/>
				<path fill="#7DBEBD" d="M339.045,398.102c-4.815,0-8.716-3.924-8.716-8.747c0-4.792,3.9-8.729,8.716-8.729
					c4.828,0,8.741,3.937,8.741,8.729C347.784,394.177,343.873,398.102,339.045,398.102z"/>
			</g>
		</g>
	</g>
</g>
<g id="Layer_1_1_">
</g>
</svg>
